<svg width="212" height="80" version="1.1" viewBox="0 0 56.092 21.167" xmlns="http://www.w3.org/2000/svg" xmlns:xlink="http://www.w3.org/1999/xlink">
  <g transform="translate(-39.687 -57.15)">
    <g transform="matrix(1.0122 0 0 1.0327 -.78682 -3.8651)" style="fill:#e6e6e6;font-variant-caps:normal;font-variant-east-asian:normal;font-variant-ligatures:normal;font-variant-numeric:normal;stroke-width:.26458">
      <path d="m54.789 61.275h-14.802l0.17145 0.55245h5.9817c-0.09525 4.6292-0.75142 12.028-5.4435 17.048l0.3048 0.3429c3.9919-3.3504 5.3507-9.4156 5.7293-12.667h6.3627c-0.24765 3.9052-0.56866 7.9778-2.1676 11.524-0.24765 0.20955-0.43815 0.2667-0.85725 0.2667-0.47625 0-2.305-0.1905-3.3337-0.3048l-0.01905 0.381c0.8763 0.1143 1.9621 0.3048 2.305 0.47625 0.28575 0.1524 0.381 0.4191 0.381 0.6858 0.81915 0 1.5812-0.24765 2.1146-0.74295 1.8257-3.283 2.1867-8.1335 2.4153-12.21 0.40005-0.0381 0.6477-0.13335 0.78105-0.2667l-1.2192-1.0096-0.5715 0.62865h-6.096c0.20955-1.3906 0.2667-2.8004 0.32385-4.1529h9.4869c0.2667 0 0.4572-0.09525 0.4953-0.28575-0.59055-0.55245-1.524-1.2764-1.524-1.2764z" style="fill:#e6e6e6;font-variant-caps:normal;font-variant-east-asian:normal;font-variant-ligatures:normal;font-variant-numeric:normal;stroke-width:.26458"/>
      <path d="m59.151 62.114h8.1915c0.2667 0 0.4191-0.09525 0.47625-0.3048-0.51435-0.4953-1.3716-1.1811-1.3716-1.1811l-0.7239 0.93345h-2.2098v-1.6574c0.43815-0.05715 0.6477-0.24765 0.6858-0.51435l-1.543-0.1905v2.3622h-3.6576zm1.5621 0.32385c0.47625 0.6477 0.9525 1.7716 0.9525 2.6098 0.8382 0.8001 1.7907-1.1049-0.70485-2.7242zm-0.01905 3.4862h6.3056c0.2667 0 0.43815-0.09525 0.47625-0.3048-0.51435-0.4953-1.3335-1.143-1.3335-1.143l-0.7239 0.89535h-1.2192c0.5715-0.762 1.0668-1.6574 1.4097-2.3432 0.381 0.01905 0.62865-0.1143 0.70485-0.32385l-1.505-0.51435c-0.24765 0.97155-0.6858 2.2288-1.0858 3.1814h-2.8384l-0.96396-0.58596 0.07242 4.9623c0.03892 2.6667-0.17526 6.1589-1.3564 8.9402l0.28575 0.24765c1.6954-2.8004 1.7716-6.5342 1.7716-8.8392zm0.4953 8.4415c1.7907-0.7239 3.6576-1.8288 4.953-3.0099 0.36195 0.0762 0.5334 0.05715 0.6477-0.13335l-1.2382-0.70485c-1.2192 1.3716-2.9718 2.6289-4.6101 3.4862zm4.0386-7.3286c-1.0668 1.2192-2.648 2.3622-4.0767 3.1432l0.24765 0.36195c1.6002-0.6477 3.2766-1.6383 4.4196-2.667 0.381 0.05715 0.5334 0.0381 0.62865-0.1524zm0.9525 7.3078c-1.6192 2.1146-3.791 3.5242-6.2484 4.4958l0.17145 0.36195c2.667-0.81915 4.972-2.0764 6.7246-4.0005 0.4191 0.09525 0.59055 0.0381 0.70485-0.1524zm-0.20955 4.7052c1.8098-0.6096 3.9243-1.6954 5.0101-2.7432 0.32385 0.1143 0.5334 0.0762 0.6477-0.09525l-1.3526-0.78105c-0.9525 1.2192-2.8575 2.5336-4.4958 3.3338zm6.4008-3.3718c1.0478 0.762 2.4384 2.1336 2.8004 3.1814 1.124 0.6477 1.6002-1.7716-2.5908-3.3528zm1.8669-11.849v2.1991h-5.1244v-2.1991zm-5.1244 10.421v-2.305h5.1244v2.305zm0-7.6501h5.1244v4.7926h-5.1244zm5.1244-6.1425h-6.6294l0.1524 0.5715h3.3528c-0.1143 0.7239-0.28575 1.6002-0.4191 2.2288h-1.4859l-0.93345-0.47625v12.916h0.1524c0.381 0 0.6858-0.1905 0.6858-0.3048v-0.59055h5.1244v0.7239h0.1143c0.3048 0 0.7239-0.24765 0.74295-0.36195v-11.221c0.3048-0.05715 0.59055-0.1905 0.70485-0.32385l-1.2002-0.93345-0.5334 0.5715h-2.7813c0.3048-0.62865 0.6477-1.4668 0.9144-2.2288h3.7719c0.2667 0 0.43815-0.09525 0.47625-0.3048-0.5334-0.51435-1.4288-1.2192-1.4288-1.2192z" style="fill:#e6e6e6;font-variant-caps:normal;font-variant-east-asian:normal;font-variant-ligatures:normal;font-variant-numeric:normal;stroke-width:.26458"/>
      <path d="m85.421 61.618h6.1341c-0.24765 0.81915-0.6858 1.924-1.0478 2.648h-5.6007l0.1524 0.5715h9.8679c0.2667 0 0.43815-0.09525 0.47625-0.3048-0.5334-0.51435-1.4288-1.2192-1.4288-1.2192l-0.78105 0.9525h-2.2479c0.55245-0.59055 1.0858-1.3144 1.4668-1.886 0.381 0.01905 0.6096-0.13335 0.6858-0.36195l-1.3906-0.40005h2.5336c0.2667 0 0.43815-0.09525 0.4953-0.3048-0.5715-0.5334-1.4478-1.2192-1.4478-1.2192l-0.762 0.9525h-2.4384v-1.3144c0.40005-0.0762 0.5715-0.24765 0.6096-0.4953l-1.4668-0.1524v1.9622l-4.3208-0.05205zm1.5811 0.1143c0.40005 0.59055 0.81915 1.543 0.8382 2.305 0.81915 0.762 1.7907-1.0287-0.59055-2.4003zm-5.8674-2.6098c-0.6096 1.9622-2.1336 4.9149-3.6004 6.5151l0.28575 0.20955c1.6383-1.4478 3.1052-3.81 3.9434-5.6388 1.2573 1.0668 2.1717 2.305 2.5718 3.2004 0.9144 0.6477 2.0384-1.3144-2.3622-3.448 0.40005-0.0381 0.5715-0.1524 0.62865-0.3429zm4.2482 17.253c-1.1811 0.3048-2.3622 0.6096-3.429 0.8763v-5.9817h2.8194c0.2667 0 0.43815-0.09525 0.47625-0.28575-0.51435-0.51435-1.3335-1.162-1.3335-1.162l-0.7239 0.89535h-1.2382v-5.5756h2.1336c0.24765 0 0.4191-0.09525 0.47625-0.3048-0.4953-0.4953-1.3144-1.124-1.3144-1.124l-0.6858 0.85725h-3.2956l0.1524 0.5715h1.6954v5.5756h-3.048l0.1524 0.55245h2.8956v6.1912c-1.3906 0.32385-2.5336 0.59055-3.2194 0.70485l0.74295 1.2573c0.17145-0.0762 0.32385-0.2286 0.381-0.4572 2.8004-0.9144 4.9149-1.6954 6.4389-2.267zm-6.7628-3.9052c0.381 1.0287 0.74295 2.6098 0.6477 3.791 0.8001 0.9144 1.7716-1.2382-0.36195-3.8672zm4.3815 3.6004c0.47625-0.81915 0.9525-2.0193 1.2764-3.0099 0.381-0.01905 0.59055-0.1905 0.66675-0.40005l-1.5621-0.43815c-0.17145 1.2764-0.4572 2.7242-0.7239 3.7338zm3.9243-5.5453v-1.6192h5.9055v1.6192zm5.9055-3.81v1.6192h-5.9055v-1.6192zm2.1526 9.3934h-0.2667c-0.13335 0.93345-0.28575 1.924-0.40005 2.1908-0.05715 0.1524-0.09525 0.1905-0.2286 0.20955h-2.1336c-0.43815 0-0.47625-0.0381-0.47625-0.2667v-7.1646h1.3526v0.55245h0.09525c0.36195 0 0.7239-0.24765 0.7239-0.32385v-4.5339c0.381-0.05715 0.55245-0.17145 0.66675-0.3048l-1.1049-0.8763-0.43815 0.55245h-5.6198l-1.0477-0.4953v6.2674h0.1143c0.43815 0 0.70485-0.2286 0.70485-0.3048v-0.5334h1.162c-0.40005 2.3622-1.543 6.9169-4.0767 8.079l0.13335 0.32385c2.9146-0.9906 4.4005-5.5644 4.9339-8.4028h1.543v7.3551c0 0.6096 0.1905 0.85725 1.1811 0.85725h1.2573c1.9622 0 2.3432-0.17145 2.3432-0.5715 0-0.1524-0.0381-0.2667-0.36195-0.381z" style="fill:#e6e6e6;font-variant-caps:normal;font-variant-east-asian:normal;font-variant-ligatures:normal;font-variant-numeric:normal;stroke-width:.26458"/>
    </g>
  </g>
</svg>
