<?xml version="1.0" encoding="UTF-8" standalone="no"?>
<svg
   xmlns:dc="http://purl.org/dc/elements/1.1/"
   xmlns:cc="http://creativecommons.org/ns#"
   xmlns:rdf="http://www.w3.org/1999/02/22-rdf-syntax-ns#"
   xmlns:svg="http://www.w3.org/2000/svg"
   xmlns="http://www.w3.org/2000/svg"
   xmlns:sodipodi="http://sodipodi.sourceforge.net/DTD/sodipodi-0.dtd"
   xmlns:inkscape="http://www.inkscape.org/namespaces/inkscape"
   width="128"
   height="128"
   viewBox="0 0 33.866666 33.866668"
   version="1.1"
   id="svg8"
   sodipodi:docname="button-download.svg"
   inkscape:version="1.0.1 (3bc2e813f5, 2020-09-07)">
  <defs
     id="defs2" />
  <sodipodi:namedview
     id="base"
     pagecolor="#ffffff"
     bordercolor="#666666"
     borderopacity="1.0"
     inkscape:pageopacity="0.0"
     inkscape:pageshadow="2"
     inkscape:zoom="2.8"
     inkscape:cx="118.6005"
     inkscape:cy="82.084907"
     inkscape:document-units="mm"
     inkscape:current-layer="layer1"
     inkscape:document-rotation="0"
     showgrid="false"
     units="px"
     inkscape:window-width="1918"
     inkscape:window-height="1061"
     inkscape:window-x="1600"
     inkscape:window-y="17"
     inkscape:window-maximized="1" />
  <metadata
     id="metadata5">
    <rdf:RDF>
      <cc:Work
         rdf:about="">
        <dc:format>image/svg+xml</dc:format>
        <dc:type
           rdf:resource="http://purl.org/dc/dcmitype/StillImage" />
        <dc:title></dc:title>
      </cc:Work>
    </rdf:RDF>
  </metadata>
  <g
     inkscape:label="レイヤー 1"
     inkscape:groupmode="layer"
     id="layer1">
    <path
       style="color:#000000;font-style:normal;font-variant:normal;font-weight:normal;font-stretch:normal;font-size:medium;line-height:normal;font-family:sans-serif;font-variant-ligatures:normal;font-variant-position:normal;font-variant-caps:normal;font-variant-numeric:normal;font-variant-alternates:normal;font-variant-east-asian:normal;font-feature-settings:normal;font-variation-settings:normal;text-indent:0;text-align:start;text-decoration:none;text-decoration-line:none;text-decoration-style:solid;text-decoration-color:#000000;letter-spacing:normal;word-spacing:normal;text-transform:none;writing-mode:lr-tb;direction:ltr;text-orientation:mixed;dominant-baseline:auto;baseline-shift:baseline;text-anchor:start;white-space:normal;shape-padding:0;shape-margin:0;inline-size:0;clip-rule:nonzero;display:inline;overflow:visible;visibility:visible;isolation:auto;mix-blend-mode:normal;color-interpolation:sRGB;color-interpolation-filters:linearRGB;solid-color:#000000;solid-opacity:1;vector-effect:none;fill:none;fill-opacity:1;fill-rule:nonzero;stroke:#353e48;stroke-width:0.529167;stroke-linecap:round;stroke-linejoin:miter;stroke-miterlimit:4;stroke-dasharray:none;stroke-dashoffset:0;stroke-opacity:1;paint-order:stroke fill markers;color-rendering:auto;image-rendering:auto;shape-rendering:auto;text-rendering:auto;enable-background:accumulate;stop-color:#000000;stop-opacity:1;opacity:1"
       d="M 16.933594 0.79296875 C 8.0230821 0.79296897 0.79296897 8.0230821 0.79296875 16.933594 C 0.79296875 25.844106 8.023082 33.072265 16.933594 33.072266 C 25.844106 33.072266 33.072266 25.844106 33.072266 16.933594 C 33.072265 8.023082 25.844106 0.79296875 16.933594 0.79296875 z M 16.933594 1.3222656 C 25.558122 1.3222656 32.542969 8.309065 32.542969 16.933594 C 32.542969 25.558123 25.558123 32.542969 16.933594 32.542969 C 8.309065 32.542969 1.3222656 25.558122 1.3222656 16.933594 C 1.3222658 8.3090652 8.3090652 1.3222658 16.933594 1.3222656 z "
       id="path852" />
    <path
       style="color:#000000;font-style:normal;font-variant:normal;font-weight:normal;font-stretch:normal;font-size:medium;line-height:normal;font-family:sans-serif;font-variant-ligatures:normal;font-variant-position:normal;font-variant-caps:normal;font-variant-numeric:normal;font-variant-alternates:normal;font-variant-east-asian:normal;font-feature-settings:normal;font-variation-settings:normal;text-indent:0;text-align:start;text-decoration:none;text-decoration-line:none;text-decoration-style:solid;text-decoration-color:#000000;letter-spacing:normal;word-spacing:normal;text-transform:none;writing-mode:lr-tb;direction:ltr;text-orientation:mixed;dominant-baseline:auto;baseline-shift:baseline;text-anchor:start;white-space:normal;shape-padding:0;shape-margin:0;inline-size:0;clip-rule:nonzero;display:inline;overflow:visible;visibility:visible;isolation:auto;mix-blend-mode:normal;color-interpolation:sRGB;color-interpolation-filters:linearRGB;solid-color:#000000;solid-opacity:1;vector-effect:none;fill:none;fill-opacity:1;fill-rule:nonzero;stroke:#353e48;stroke-width:0.529167;stroke-linecap:round;stroke-linejoin:round;stroke-miterlimit:2.4;stroke-dasharray:none;stroke-dashoffset:0;stroke-opacity:1;color-rendering:auto;image-rendering:auto;shape-rendering:auto;text-rendering:auto;enable-background:accumulate;stop-color:#000000;stop-opacity:1;opacity:1"
       d="M 16.933594 7.6738281 A 0.2645835 0.2645835 0 0 0 16.667969 7.9375 L 16.667969 15.611328 L 8.4667969 15.611328 A 0.26460996 0.26460996 0 0 0 8.2597656 16.041016 L 16.720703 26.615234 A 0.26460996 0.26460996 0 0 0 16.722656 26.619141 L 16.726562 26.623047 A 0.26460996 0.26460996 0 0 0 16.751953 26.650391 A 0.2645835 0.2645835 0 0 0 16.755859 26.654297 A 0.26460996 0.26460996 0 0 0 16.787109 26.677734 A 0.2645835 0.2645835 0 0 0 16.822266 26.697266 A 0.2645835 0.2645835 0 0 0 16.828125 26.701172 A 0.26460996 0.26460996 0 0 0 16.865234 26.712891 A 0.2645835 0.2645835 0 0 0 16.90625 26.720703 A 0.2645835 0.2645835 0 0 0 16.951172 26.722656 A 0.2645835 0.2645835 0 0 0 16.955078 26.722656 A 0.26460996 0.26460996 0 0 0 16.96875 26.720703 A 0.2645835 0.2645835 0 0 0 16.992188 26.716797 A 0.26460996 0.26460996 0 0 0 16.998047 26.714844 A 0.2645835 0.2645835 0 0 0 17.035156 26.703125 A 0.26460996 0.26460996 0 0 0 17.042969 26.699219 A 0.2645835 0.2645835 0 0 0 17.072266 26.683594 A 0.26460996 0.26460996 0 0 0 17.078125 26.679688 A 0.2645835 0.2645835 0 0 0 17.097656 26.664062 A 0.26460996 0.26460996 0 0 0 17.123047 26.642578 A 0.26460996 0.26460996 0 0 0 17.130859 26.634766 A 0.2645835 0.2645835 0 0 0 17.15625 26.601562 L 25.607422 16.041016 A 0.26460996 0.26460996 0 0 0 25.400391 15.611328 L 17.197266 15.611328 L 17.197266 7.9375 A 0.2645835 0.2645835 0 0 0 16.933594 7.6738281 z M 9.0175781 16.138672 L 16.667969 16.138672 L 16.667969 25.701172 L 9.0175781 16.138672 z M 17.197266 16.138672 L 24.849609 16.138672 L 17.197266 25.705078 L 17.197266 16.138672 z "
       id="path856" />
    <circle
       style="fill:none;stroke-width:0.52916667;stroke-linecap:round;paint-order:stroke fill markers;stroke:#e6e6e6;stroke-opacity:1;stroke-miterlimit:4;stroke-dasharray:none"
       id="path835"
       cx="16.933332"
       cy="16.933332"
       r="15.875" />
    <path
       style="fill:none;stroke:#e6e6e6;stroke-width:0.52916698;stroke-linecap:round;stroke-linejoin:round;stroke-miterlimit:2.4;stroke-dasharray:none;stroke-opacity:1"
       d="M 16.933333,7.9375 V 26.458333 L 25.4,15.875 H 8.4666667 l 8.4666663,10.583333"
       id="path843"
       sodipodi:nodetypes="ccccc" />
  </g>
</svg>
